HIERARCHY
ROOT root
{
	OFFSET 0.000000 0.000000 0.000000
	CHANNELS 6 Xposition Yposition Zposition Zrotation Yrotation Xrotation
	JOINT lhip
	{
		OFFSET 0.058581 -0.082280 -0.017664
		CHANNELS 3 Zrotation Yrotation Xrotation
		JOINT lknee
		{
			OFFSET 0.043451 -0.386469 0.008037
			CHANNELS 3 Zrotation Yrotation Xrotation
			JOINT lankle
			{
				OFFSET -0.014790 -0.426874 -0.037428
				CHANNELS 3 Zrotation Yrotation Xrotation
				JOINT ltoe
				{
					OFFSET 0.041054 -0.060286 0.122042
					CHANNELS 3 Zrotation Yrotation Xrotation
					End Site
					{
						OFFSET 0.000000 0.000000 0.000000
					}
				}
			}
		}
	}
	JOINT rhip
	{
		OFFSET -0.060310 -0.090513 -0.013543
		CHANNELS 3 Zrotation Yrotation Xrotation
		JOINT rknee
		{
			OFFSET -0.043257 -0.383688 -0.004843
			CHANNELS 3 Zrotation Yrotation Xrotation
			JOINT rankle
			{
				OFFSET 0.019056 -0.420046 -0.034562
				CHANNELS 3 Zrotation Yrotation Xrotation
				JOINT rtoe
				{
					OFFSET -0.034840 -0.062106 0.130323
					CHANNELS 3 Zrotation Yrotation Xrotation
					End Site
					{
						OFFSET 0.000000 0.000000 0.000000
					}
				}
			}
		}
	}
	JOINT lowerback
	{
		OFFSET 0.004439 0.124404 -0.038385
		CHANNELS 3 Zrotation Yrotation Xrotation
		JOINT upperback
		{
			OFFSET 0.004488 0.137956 0.026820
			CHANNELS 3 Zrotation Yrotation Xrotation
			JOINT chest
			{
				OFFSET -0.002265 0.056032 0.002855
				CHANNELS 3 Zrotation Yrotation Xrotation
				JOINT lowerneck
				{
					OFFSET -0.013390 0.211636 -0.033468
					CHANNELS 3 Zrotation Yrotation Xrotation
					JOINT upperneck
					{
						OFFSET 0.010113 0.088937 0.050410
						CHANNELS 3 Zrotation Yrotation Xrotation
						End Site
						{
							OFFSET 0.000000 0.000000 0.000000
						}
					}
				}
				JOINT lclavicle
				{
					OFFSET 0.071702 0.114000 -0.018898
					CHANNELS 3 Zrotation Yrotation Xrotation
					JOINT lshoulder
					{
						OFFSET 0.122921 0.045205 -0.019046
						CHANNELS 3 Zrotation Yrotation Xrotation
						JOINT lelbow
						{
							OFFSET 0.255332 -0.015649 -0.022946
							CHANNELS 3 Zrotation Yrotation Xrotation
							JOINT lwrist
							{
								OFFSET 0.265709 0.012698 -0.007375
								CHANNELS 3 Zrotation Yrotation Xrotation
								End Site
								{
									OFFSET 0.000000 0.000000 0.000000
								}
							}
						}
					}
				}
				JOINT rclavicle
				{
					OFFSET -0.082954 0.112472 -0.023707
					CHANNELS 3 Zrotation Yrotation Xrotation
					JOINT rshoulder
					{
						OFFSET -0.113228 0.046853 -0.008472
						CHANNELS 3 Zrotation Yrotation Xrotation
						JOINT relbow
						{
							OFFSET -0.260127 -0.014369 -0.031269
							CHANNELS 3 Zrotation Yrotation Xrotation
							JOINT rwrist
							{
								OFFSET -0.269108 0.006794 -0.006027
								CHANNELS 3 Zrotation Yrotation Xrotation
								End Site
								{
									OFFSET 0.000000 0.000000 0.000000
								}
							}
						}
					}
				}
			}
		}
	}
}
MOTION
Frames: 16
Frame Time: 0.033333
0.057747 0.275531 0.967197 14.122874 0.334506 90.271907 11.684551 -4.822321 10.122409 -8.097292 -27.604737 28.920800 -1.557104 5.834818 -6.897891 0.000000 -0.000000 0.000000 -6.578329 0.235392 -23.218973 -0.864818 0.061246 33.985095 2.530504 -15.427469 -8.714310 0.000000 -0.000000 0.000000 -2.685028 -5.875441 3.751513 0.895431 -5.050724 3.062521 -0.423807 -6.320411 3.621696 -1.799926 19.030089 -8.227788 -1.170649 20.679256 -3.871046 -17.006475 -2.864539 -0.508738 -39.501482 -16.127479 1.242942 82.012397 -75.051935 -45.955758 18.510345 -8.714690 4.844623 16.267909 -7.868843 -3.476495 44.887039 -9.937407 3.052763 -50.907636 57.203007 -22.101302 4.600951 4.067833 2.125355 
0.071241 0.317509 0.968896 13.904419 0.449682 91.883453 10.804699 -4.530498 9.452708 -6.533381 -28.939403 23.464381 -0.488159 6.794695 -12.388546 0.000000 -0.000000 0.000000 -7.995796 0.358560 -26.095840 -1.362715 0.834396 30.008479 4.244419 -15.663591 -3.814823 0.000000 -0.000000 0.000000 -2.563816 -6.084557 3.634044 1.381965 -5.229548 2.854080 -0.016932 -6.583223 3.981587 -2.136931 19.227590 -9.608584 -1.434964 20.547753 -4.282900 -17.118347 -3.977126 -0.320407 -39.317238 -17.835780 1.447288 74.676340 -74.339771 -39.638833 18.852154 -9.624149 5.982591 17.134790 -7.520779 -3.648562 43.794273 -8.209679 4.162034 -52.570589 57.880585 -23.738231 4.970554 3.842045 3.494610 
0.085719 0.361402 0.974138 12.042335 0.243664 93.586213 8.651853 -4.484014 7.081302 -5.032812 -27.970176 20.203973 1.302651 7.993500 -15.558206 0.000000 -0.000000 0.000000 -9.125870 -0.040867 -27.993796 -2.172673 2.596276 22.823873 6.172527 -15.697208 3.428258 0.000000 -0.000000 0.000000 -2.682733 -5.414019 4.166431 1.560124 -4.985521 2.116022 0.641157 -6.506769 4.067123 -2.759590 18.456565 -11.166863 -1.382903 21.266784 -4.869582 -16.853271 -4.577560 -0.063803 -39.944684 -18.678406 2.116090 69.721715 -73.730725 -34.596827 20.301618 -8.573084 7.178401 17.366979 -6.830974 -3.544507 42.906094 -6.656826 5.391578 -53.400096 58.156484 -24.593468 6.126649 3.366786 4.463900 
0.100292 0.404269 0.981057 8.932482 -0.194249 95.738483 6.402955 -4.489931 3.733508 -4.000614 -23.654764 17.474479 2.811188 7.682110 -16.171739 0.000000 -0.000000 0.000000 -9.931099 -1.285239 -29.691540 -3.129508 2.592618 13.423682 8.409172 -14.534581 13.503813 0.000000 -0.000000 0.000000 -2.734493 -4.084054 3.708124 1.331103 -4.508705 1.552786 1.031228 -6.064917 4.262349 -3.683900 17.697198 -12.435580 -1.033717 21.595613 -5.701969 -16.614108 -4.567120 0.234282 -40.772288 -19.292599 2.614699 66.779069 -72.957811 -33.778958 16.057616 -10.305633 8.406445 17.101036 -6.711053 -2.871650 42.585555 -4.751368 6.339293 -55.073436 58.755378 -26.700740 10.009850 2.599567 6.055298 
0.113466 0.442654 0.988441 5.836687 -0.304967 97.153736 5.087572 -3.649483 0.882852 -3.810033 -20.234065 15.398633 3.778517 7.391617 -16.173233 0.000000 -0.000000 0.000000 -9.832970 -3.133300 -29.216755 -3.006986 2.829404 2.910168 10.523745 -12.454538 20.076767 0.000000 -0.000000 0.000000 -2.215956 -2.657277 3.532210 0.768258 -4.115070 0.942696 1.083054 -5.429552 4.480326 -4.686247 17.106492 -13.121389 -0.760143 21.947169 -6.478856 -16.475200 -4.488782 0.250520 -40.227858 -19.081379 2.573554 63.675265 -73.786430 -31.315346 15.190725 -9.660071 8.698797 16.729184 -6.631102 -2.241449 42.499427 -3.637922 6.372262 -55.509198 60.112300 -26.817976 10.726748 2.698851 6.551431 
0.123850 0.476556 0.995133 3.026529 -0.051135 97.940350 4.524062 -2.136080 -0.952389 -3.575485 -18.296352 12.876261 3.693708 6.952534 -15.520339 0.000000 -0.000000 0.000000 -8.976050 -3.526183 -28.736600 -2.768247 3.428611 -1.286139 10.883909 -10.200925 14.182259 0.000000 -0.000000 0.000000 -1.627297 -1.717274 3.314423 0.474799 -3.329440 1.047713 0.942025 -4.587175 4.383270 -5.176753 17.318979 -13.416882 -1.268637 20.875633 -7.321707 -16.260708 -3.957504 -0.764165 -40.354611 -18.515456 3.360759 59.773136 -74.820699 -26.881117 15.070599 -9.892105 7.681581 16.701523 -6.735420 -2.328181 42.154144 -3.121214 6.023903 -54.880312 61.547425 -25.589229 11.826761 3.299602 5.989287 
0.132763 0.507673 1.000758 1.783975 0.238192 97.844871 3.925499 -1.722902 -2.117068 -3.133649 -17.404067 11.003706 3.069671 7.393059 -14.136810 0.000000 -0.000000 0.000000 -8.337119 -3.546010 -26.949129 -2.947329 2.733479 -0.844331 10.926492 -10.282928 10.131521 0.000000 -0.000000 0.000000 -0.706087 -1.531489 4.192834 0.141911 -2.996287 0.147637 0.779587 -4.099716 4.569627 -5.438070 17.163828 -13.304132 -1.563346 20.679541 -7.145198 -16.397709 -3.471178 -1.101266 -40.812166 -17.376514 3.864675 57.684183 -76.015906 -24.306946 16.415176 -9.762683 7.231913 16.372501 -6.341579 -2.041059 42.034969 -2.855465 5.874555 -53.109407 62.276544 -24.108360 9.468708 3.747661 6.025043 
0.139857 0.537196 1.006142 0.945992 0.691805 97.383451 3.480741 -2.062369 -3.375410 -2.644510 -15.995323 10.272003 2.869304 8.143719 -12.877725 0.000000 -0.000000 0.000000 -7.738327 -3.051040 -24.733933 -3.047126 2.547244 3.110428 9.909821 -10.160481 7.590424 0.000000 -0.000000 0.000000 0.093215 -1.430753 4.904734 0.184235 -2.860949 -0.267778 0.685441 -3.780606 4.696901 -5.397972 17.167952 -12.963974 -2.081674 20.472159 -6.706019 -16.557649 -2.878266 -1.540513 -41.665627 -16.329885 4.450000 54.985446 -76.859303 -21.045808 15.115698 -9.755695 6.140418 16.054737 -5.999183 -2.079288 41.598113 -2.239285 5.933409 -50.419387 62.255711 -21.277264 9.031816 3.885490 6.011710 
0.144693 0.563307 1.011002 0.126361 0.928565 96.931750 3.315439 -2.717546 -4.439044 -2.567014 -15.013013 9.789389 2.983365 8.852430 -11.810177 0.000000 -0.000000 0.000000 -7.328669 -2.875326 -22.318664 -2.722984 1.618553 8.699822 8.232354 -11.685585 3.009092 0.000000 -0.000000 0.000000 0.298719 -1.005292 4.532267 0.429875 -2.720215 0.121626 0.661003 -3.506284 4.489532 -4.955119 16.697090 -11.978293 -2.092795 19.753330 -6.170633 -16.857818 -2.525405 -1.242836 -42.354901 -15.094319 4.994201 52.333821 -77.744921 -17.504909 13.806320 -9.018076 5.190828 16.194283 -5.600791 -1.965651 40.534330 -2.196122 5.523676 -47.743478 62.206245 -18.244585 10.403014 3.670362 6.595587 
0.148134 0.587745 1.013942 -0.266043 0.947768 96.037413 3.114746 -3.104801 -5.139407 -2.537016 -14.826686 9.522651 2.919203 9.491536 -10.914883 0.000000 -0.000000 0.000000 -7.396699 -2.891184 -18.909464 -2.552667 0.448220 14.744457 6.413245 -13.574997 -0.863495 0.000000 -0.000000 0.000000 0.346257 -0.577914 4.394193 0.464520 -2.577805 0.495760 0.637716 -3.054993 4.317639 -4.368743 15.467887 -10.784887 -1.667102 18.939000 -5.600535 -16.992822 -2.627542 -0.920829 -43.061324 -14.035322 5.383037 48.701167 -78.571265 -13.225646 13.287905 -8.538474 4.824241 15.827409 -5.192891 -1.922595 40.099281 -3.109260 4.758420 -45.095598 62.012666 -15.325004 11.111730 3.776132 7.510225 
0.149726 0.611575 1.014936 -0.439080 0.897349 95.011021 3.108509 -3.627874 -5.702331 -2.811891 -14.688074 9.399209 2.903152 10.338023 -10.043881 0.000000 -0.000000 0.000000 -7.484271 -2.696831 -14.729743 -2.482461 0.030900 20.290357 5.187798 -15.285748 -3.738305 0.000000 -0.000000 0.000000 0.478760 -0.133930 4.587800 0.316792 -2.417674 -0.007183 0.384412 -2.806040 4.808779 -3.629772 12.927593 -10.010132 -1.013201 16.878622 -4.950414 -17.046490 -2.343930 -1.102182 -43.903707 -12.755003 6.196943 45.664834 -79.616443 -9.816753 13.729377 -7.812014 4.524188 15.416213 -5.006655 -2.418232 40.137711 -4.228756 4.366444 -41.900033 61.146365 -12.426264 10.776663 3.530827 8.151816 
0.149486 0.635287 1.013695 -0.171657 0.726051 94.295865 3.195966 -4.169229 -7.095134 -3.251961 -14.397611 10.013971 3.796729 10.413955 -9.500870 0.000000 -0.000000 0.000000 -7.510474 -2.634652 -10.708615 -2.285028 0.594086 25.729039 4.010523 -15.851187 -5.463102 0.000000 -0.000000 0.000000 0.432553 0.287508 4.439340 0.244645 -2.438951 -0.676616 -0.094746 -2.425756 5.305474 -2.596120 10.080102 -9.643758 0.159679 13.617087 -3.330205 -16.952683 -1.422993 -1.390406 -44.892763 -12.307548 7.045885 39.132373 -80.784420 -2.712139 12.495383 -7.510472 3.487183 14.830445 -5.444594 -3.007162 40.611648 -5.198267 4.156846 -38.161502 59.280447 -8.253434 11.122409 3.230837 9.469255 
0.147509 0.658284 1.012231 -0.731237 0.315345 93.379153 3.141259 -4.281932 -8.309067 -3.895193 -14.154962 11.058666 4.143885 10.917744 -8.927450 0.000000 -0.000000 0.000000 -7.892149 -3.257014 -6.276141 -2.092710 1.564326 29.612017 3.647231 -15.766211 -6.601144 0.000000 -0.000000 0.000000 -0.106822 1.210489 4.013413 0.080162 -2.403695 -0.628861 -0.382928 -2.131594 5.580924 -1.870169 6.036232 -8.988063 0.786387 10.198996 -2.581350 -17.205197 -0.737793 -1.748798 -45.402304 -11.411377 8.071996 33.940800 -81.653753 2.871017 12.692750 -6.727101 2.980065 14.681167 -5.323386 -3.766712 40.408810 -6.260850 3.794810 -34.283295 56.959755 -4.894907 12.451370 2.465015 10.901958 
0.143970 0.681271 1.010593 -1.996546 -0.023695 92.295244 3.175729 -4.053432 -9.124844 -4.275210 -13.594852 11.963314 4.465586 11.287994 -8.233768 0.000000 -0.000000 0.000000 -8.702239 -4.664355 -1.528943 -2.415791 2.206606 31.580099 2.502358 -16.384594 -5.026864 0.000000 -0.000000 0.000000 -0.467971 2.253557 3.551257 -0.340182 -2.294861 -0.259397 -0.525008 -1.812907 5.650189 -1.924681 1.866308 -7.995948 1.876105 6.812399 -1.499497 -17.432200 -0.185635 -1.462133 -46.179893 -10.483239 8.086257 28.174993 -82.476278 9.223876 12.497899 -6.400903 1.682026 14.304262 -4.919942 -3.729849 40.702019 -6.727174 2.823186 -31.268999 54.746142 -2.383003 13.656481 1.265140 11.560040 
0.139371 0.706517 1.008449 -3.357147 0.096410 92.022874 3.869742 -4.509317 -11.364458 -4.313269 -11.906786 13.654040 4.968682 11.413300 -7.681726 0.000000 -0.000000 0.000000 -9.558716 -6.214844 1.971978 -3.244576 1.510977 32.257654 1.058441 -17.813471 -1.214215 0.000000 -0.000000 0.000000 -0.339594 3.176262 2.580735 -0.494442 -2.322335 -0.394680 -0.741180 -1.486976 5.851549 -1.926078 -1.946303 -6.079863 2.557739 5.308429 -1.300326 -17.849113 0.799572 -0.927248 -47.312620 -10.060421 8.452978 21.805281 -83.116300 16.087417 11.048361 -5.767822 0.612331 14.310463 -4.775079 -3.441983 40.274737 -6.534874 2.141443 -28.541933 51.604418 -0.686707 13.412835 0.847905 12.965496 
0.132334 0.730743 1.006936 -5.977428 0.395477 91.377276 5.061487 -4.056768 -12.708929 -4.376973 -9.972597 14.987364 5.709319 11.458740 -7.483615 0.000000 -0.000000 0.000000 -10.733624 -7.885500 5.365915 -3.993561 1.813797 31.463921 -0.603807 -19.404916 3.242304 0.000000 -0.000000 0.000000 -0.143446 4.112299 1.583253 -0.625318 -2.123096 0.046572 -0.894104 -1.289756 5.998713 -2.219468 -5.337200 -5.226194 2.801162 4.280108 -0.148108 -18.547714 2.095786 -0.581758 -47.900776 -9.457002 8.574379 13.339091 -83.762043 24.812129 10.557469 -5.622453 -0.321972 14.637502 -4.638067 -3.333515 39.553011 -5.631452 1.877622 -26.776830 48.905764 -0.089235 14.470334 0.038639 14.734323 
